<?xml version="1.0" encoding="UTF-8" standalone="no"?>
<svg
   xmlns:dc="http://purl.org/dc/elements/1.1/"
   xmlns:cc="http://creativecommons.org/ns#"
   xmlns:rdf="http://www.w3.org/1999/02/22-rdf-syntax-ns#"
   xmlns:svg="http://www.w3.org/2000/svg"
   xmlns="http://www.w3.org/2000/svg"
   xmlns:sodipodi="http://sodipodi.sourceforge.net/DTD/sodipodi-0.dtd"
   xmlns:inkscape="http://www.inkscape.org/namespaces/inkscape"
   inkscape:version="1.0 (4035a4fb49, 2020-05-01)"
   sodipodi:docname="academics.svg"
   xml:space="preserve"
   style="enable-background:new 0 0 512 512;"
   viewBox="0 0 512 512"
   y="0px"
   x="0px"
   id="Layer_1"
   version="1.1"><metadata
   id="metadata1061"><rdf:RDF><cc:Work
       rdf:about=""><dc:format>image/svg+xml</dc:format><dc:type
         rdf:resource="http://purl.org/dc/dcmitype/StillImage" /></cc:Work></rdf:RDF></metadata><defs
   id="defs1059" /><sodipodi:namedview
   inkscape:current-layer="Layer_1"
   inkscape:window-maximized="1"
   inkscape:window-y="-9"
   inkscape:window-x="-9"
   inkscape:cy="256"
   inkscape:cx="256"
   inkscape:zoom="1.4394531"
   showgrid="false"
   id="namedview1057"
   inkscape:window-height="1001"
   inkscape:window-width="1920"
   inkscape:pageshadow="2"
   inkscape:pageopacity="0"
   guidetolerance="10"
   gridtolerance="10"
   objecttolerance="10"
   borderopacity="1"
   bordercolor="#666666"
   pagecolor="#ffffff" />
<g
   style="fill:#fefefe;fill-opacity:1"
   id="g952">
	<g
   style="fill:#fefefe;fill-opacity:1"
   id="g950">
		<rect
   style="fill:#fefefe;fill-opacity:1"
   id="rect948"
   height="15.706"
   width="512"
   y="492.63" />
	</g>
</g>
<g
   style="fill:#fefefe;fill-opacity:1"
   id="g958">
	<g
   style="fill:#fefefe;fill-opacity:1"
   id="g956">
		<polygon
   style="fill:#fefefe;fill-opacity:1"
   id="polygon954"
   points="31.411,461.219 31.411,485.301 47.117,485.301 47.117,476.924 464.883,476.924 464.883,485.301 480.589,485.301     480.589,461.219   " />
	</g>
</g>
<g
   style="fill:#fefefe;fill-opacity:1"
   id="g964">
	<g
   style="fill:#fefefe;fill-opacity:1"
   id="g962">
		<polygon
   style="fill:#fefefe;fill-opacity:1"
   id="polygon960"
   points="47.117,429.808 47.117,453.89 62.822,453.89 62.822,445.513 449.178,445.513 449.178,453.89 464.883,453.89     464.883,429.808   " />
	</g>
</g>
<g
   style="fill:#fefefe;fill-opacity:1"
   id="g970">
	<g
   style="fill:#fefefe;fill-opacity:1"
   id="g968">
		<path
   style="fill:#fefefe;fill-opacity:1"
   id="path966"
   d="M125.644,193.178v-15.706H70.151v15.706h8.376v212.548h-8.376v15.706h55.493v-15.706h-7.329V193.178H125.644z     M102.609,405.726h-8.376V193.178h8.376V405.726z" />
	</g>
</g>
<g
   style="fill:#fefefe;fill-opacity:1"
   id="g976">
	<g
   style="fill:#fefefe;fill-opacity:1"
   id="g974">
		<path
   style="fill:#fefefe;fill-opacity:1"
   id="path972"
   d="M205.219,193.178v-15.706h-55.493v15.706h7.329v212.548h-7.329v15.706h55.493v-15.706h-8.376V193.178H205.219z     M181.137,405.726h-8.376V193.178h8.376V405.726z" />
	</g>
</g>
<g
   style="fill:#fefefe;fill-opacity:1"
   id="g982">
	<g
   style="fill:#fefefe;fill-opacity:1"
   id="g980">
		<path
   style="fill:#fefefe;fill-opacity:1"
   id="path978"
   d="M283.746,193.178v-15.706h-55.493v15.706h8.376v212.548h-8.376v15.706h55.493v-15.706h-8.376V193.178H283.746z     M259.665,405.726h-7.329V193.178h7.329V405.726z" />
	</g>
</g>
<g
   style="fill:#fefefe;fill-opacity:1"
   id="g988">
	<g
   style="fill:#fefefe;fill-opacity:1"
   id="g986">
		<path
   style="fill:#fefefe;fill-opacity:1"
   id="path984"
   d="M362.274,193.178v-15.706h-55.493v15.706h8.376v212.548h-8.376v15.706h55.493v-15.706h-7.329V193.178H362.274z     M339.239,405.726h-8.376V193.178h8.376V405.726z" />
	</g>
</g>
<g
   style="fill:#fefefe;fill-opacity:1"
   id="g994">
	<g
   style="fill:#fefefe;fill-opacity:1"
   id="g992">
		<path
   style="fill:#fefefe;fill-opacity:1"
   id="path990"
   d="M441.849,193.178v-15.706h-55.493v15.706h7.329v212.548h-7.329v15.706h55.493v-15.706h-8.376V193.178H441.849z     M417.767,405.726h-8.376V193.178h8.376V405.726z" />
	</g>
</g>
<g
   style="fill:#fefefe;fill-opacity:1"
   id="g1000">
	<g
   style="fill:#fefefe;fill-opacity:1"
   id="g998">
		<path
   style="fill:#fefefe;fill-opacity:1"
   id="path996"
   d="M277.037,27.746h-8.996V3.665h-15.706v24.082h-9.438L23.035,100.731v45.33h24.082v23.035h417.767v-23.035h24.082v-45.262    L277.037,27.746z M449.178,153.391H62.822v-7.329h386.356V153.391z M473.26,130.356H38.74V114.65h95.28V98.945H78.268    l167.169-55.493h28.968l160.987,55.493h-49.036v15.706h86.904V130.356z" />
	</g>
</g>
<g
   style="fill:#fefefe;fill-opacity:1"
   id="g1006">
	<g
   style="fill:#fefefe;fill-opacity:1"
   id="g1004">
		<rect
   style="fill:#fefefe;fill-opacity:1"
   id="rect1002"
   height="15.706"
   width="220.924"
   y="98.945"
   x="149.726" />
	</g>
</g>
<g
   style="fill:#fefefe;fill-opacity:1"
   id="g1012">
	<g
   style="fill:#fefefe;fill-opacity:1"
   id="g1010">
		<rect
   style="fill:#fefefe;fill-opacity:1"
   id="rect1008"
   height="15.706"
   width="15.706"
   y="66.487"
   x="252.335" />
	</g>
</g>
<g
   style="fill:#fefefe;fill-opacity:1"
   id="g1018">
	<g
   style="fill:#fefefe;fill-opacity:1"
   id="g1016">
		<rect
   style="fill:#fefefe;fill-opacity:1"
   id="rect1014"
   height="15.706"
   width="15.706"
   y="66.487"
   x="220.924" />
	</g>
</g>
<g
   style="fill:#fefefe;fill-opacity:1"
   id="g1024">
	<g
   style="fill:#fefefe;fill-opacity:1"
   id="g1022">
		<rect
   style="fill:#fefefe;fill-opacity:1"
   id="rect1020"
   height="15.706"
   width="15.706"
   y="66.487"
   x="283.746" />
	</g>
</g>
<g
   style="fill:#fefefe;fill-opacity:1"
   id="g1026">
</g>
<g
   style="fill:#fefefe;fill-opacity:1"
   id="g1028">
</g>
<g
   style="fill:#fefefe;fill-opacity:1"
   id="g1030">
</g>
<g
   style="fill:#fefefe;fill-opacity:1"
   id="g1032">
</g>
<g
   style="fill:#fefefe;fill-opacity:1"
   id="g1034">
</g>
<g
   style="fill:#fefefe;fill-opacity:1"
   id="g1036">
</g>
<g
   style="fill:#fefefe;fill-opacity:1"
   id="g1038">
</g>
<g
   style="fill:#fefefe;fill-opacity:1"
   id="g1040">
</g>
<g
   style="fill:#fefefe;fill-opacity:1"
   id="g1042">
</g>
<g
   style="fill:#fefefe;fill-opacity:1"
   id="g1044">
</g>
<g
   style="fill:#fefefe;fill-opacity:1"
   id="g1046">
</g>
<g
   style="fill:#fefefe;fill-opacity:1"
   id="g1048">
</g>
<g
   style="fill:#fefefe;fill-opacity:1"
   id="g1050">
</g>
<g
   style="fill:#fefefe;fill-opacity:1"
   id="g1052">
</g>
<g
   style="fill:#fefefe;fill-opacity:1"
   id="g1054">
</g>
</svg>
