<?xml version="1.0" encoding="UTF-8" standalone="no"?>
<svg
   xmlns:dc="http://purl.org/dc/elements/1.1/"
   xmlns:cc="http://creativecommons.org/ns#"
   xmlns:rdf="http://www.w3.org/1999/02/22-rdf-syntax-ns#"
   xmlns:svg="http://www.w3.org/2000/svg"
   xmlns="http://www.w3.org/2000/svg"
   xmlns:sodipodi="http://sodipodi.sourceforge.net/DTD/sodipodi-0.dtd"
   xmlns:inkscape="http://www.inkscape.org/namespaces/inkscape"
   inkscape:version="1.0 (4035a4fb49, 2020-05-01)"
   sodipodi:docname="cinema.svg"
   id="svg3"
   version="1.1"
   viewBox="-0.08 0 50.633 50.633"
   height="50.633px"
   width="50.633px">
  <metadata
     id="metadata9">
    <rdf:RDF>
      <cc:Work
         rdf:about="">
        <dc:format>image/svg+xml</dc:format>
        <dc:type
           rdf:resource="http://purl.org/dc/dcmitype/StillImage" />
      </cc:Work>
    </rdf:RDF>
  </metadata>
  <defs
     id="defs7" />
  <sodipodi:namedview
     inkscape:current-layer="svg3"
     inkscape:window-maximized="1"
     inkscape:window-y="-9"
     inkscape:window-x="-9"
     inkscape:cy="25.3165"
     inkscape:cx="25.3165"
     inkscape:zoom="16.392472"
     showgrid="false"
     id="namedview5"
     inkscape:window-height="1001"
     inkscape:window-width="1920"
     inkscape:pageshadow="2"
     inkscape:pageopacity="0"
     guidetolerance="10"
     gridtolerance="10"
     objecttolerance="10"
     borderopacity="1"
     bordercolor="#666666"
     pagecolor="#ffffff" />
  <path
     style="fill:#ffffff;fill-opacity:1"
     fill="#2c3233"
     transform="translate(-213.841 -657.745)"
     d="M235.795,668.725A10.977,10.977,0,1,0,224.821,679.7,10.975,10.975,0,0,0,235.795,668.725Zm-19.411,0a8.434,8.434,0,1,1,8.437,8.434A8.448,8.448,0,0,1,216.384,668.725Zm31.634,10.98a8.277,8.277,0,1,0-8.279-8.278A8.277,8.277,0,0,0,248.018,679.705Zm0-14.013a5.733,5.733,0,1,1-5.731,5.735A5.743,5.743,0,0,1,248.018,665.692Zm15.96,17.666a1.663,1.663,0,0,0-1.378-.747,2.071,2.071,0,0,0-1.36.56l-9.691,8.42V685.74a4.206,4.206,0,0,0-4.2-4.2H222.928a4.2,4.2,0,0,0-4.2,4.2v18.437a4.209,4.209,0,0,0,4.2,4.2h24.417a4.215,4.215,0,0,0,4.2-4.2v-6.671l9.691,8.5a2.085,2.085,0,0,0,1.362.562.458.458,0,0,0,.052,0,1.658,1.658,0,0,0,1.328-.752,2.163,2.163,0,0,0,.325-1.2V684.569A2.164,2.164,0,0,0,263.978,683.358Zm-14.972,20.819a1.677,1.677,0,0,1-1.661,1.656H222.928a1.677,1.677,0,0,1-1.659-1.656V685.74a1.678,1.678,0,0,1,1.659-1.658h24.417a1.679,1.679,0,0,1,1.661,1.658Zm12.762-1.1-9.739-8.536,9.739-8.455Z"
     id="cinema" />
</svg>
