<?xml version="1.0" encoding="UTF-8" standalone="no"?>
<svg
   xmlns:dc="http://purl.org/dc/elements/1.1/"
   xmlns:cc="http://creativecommons.org/ns#"
   xmlns:rdf="http://www.w3.org/1999/02/22-rdf-syntax-ns#"
   xmlns:svg="http://www.w3.org/2000/svg"
   xmlns="http://www.w3.org/2000/svg"
   xmlns:sodipodi="http://sodipodi.sourceforge.net/DTD/sodipodi-0.dtd"
   xmlns:inkscape="http://www.inkscape.org/namespaces/inkscape"
   inkscape:version="1.0 (4035a4fb49, 2020-05-01)"
   sodipodi:docname="cpu.svg"
   xml:space="preserve"
   style="enable-background:new 0 0 60 60;"
   viewBox="0 0 60 60"
   y="0px"
   x="0px"
   id="Capa_1"
   version="1.1"><metadata
   id="metadata933"><rdf:RDF><cc:Work
       rdf:about=""><dc:format>image/svg+xml</dc:format><dc:type
         rdf:resource="http://purl.org/dc/dcmitype/StillImage" /></cc:Work></rdf:RDF></metadata><defs
   id="defs931" /><sodipodi:namedview
   inkscape:current-layer="Capa_1"
   inkscape:window-maximized="1"
   inkscape:window-y="-9"
   inkscape:window-x="-9"
   inkscape:cy="28.597541"
   inkscape:cx="34.593804"
   inkscape:zoom="4.3428142"
   showgrid="false"
   id="namedview929"
   inkscape:window-height="1001"
   inkscape:window-width="1920"
   inkscape:pageshadow="2"
   inkscape:pageopacity="0"
   guidetolerance="10"
   gridtolerance="10"
   objecttolerance="10"
   borderopacity="1"
   bordercolor="#666666"
   pagecolor="#ffffff"
   inkscape:document-rotation="0" />
<g
   transform="matrix(0.40647508,0,0,0.49035223,9.7777581,19.35438)"
   id="g896"
   style="fill:#fefefe;fill-opacity:1">
	<circle
   id="circle884"
   r="2"
   cy="37"
   cx="41"
   style="fill:#fefefe;fill-opacity:1" />
	<g
   id="g894"
   style="fill:#fefefe;fill-opacity:1">
		<path
   id="path886"
   d="M 46.592,0 H 13.408 C 11.529,0 10,1.529 10,3.408 V 56.592 C 10,58.471 11.529,60 13.408,60 H 46.592 C 48.471,60 50,58.471 50,56.592 V 3.408 C 50,1.529 48.471,0 46.592,0 Z M 16,51 c 0,-0.553 0.447,-1 1,-1 h 2 c 0.553,0 1,0.447 1,1 0,0.553 -0.447,1 -1,1 h -2 c -0.553,0 -1,-0.447 -1,-1 z m 3,-3 c 0,-0.553 0.447,-1 1,-1 h 2 c 0.553,0 1,0.447 1,1 0,0.553 -0.447,1 -1,1 h -2 c -0.553,0 -1,-0.447 -1,-1 z m 3,7 h -2 c -0.553,0 -1,-0.447 -1,-1 0,-0.553 0.447,-1 1,-1 h 2 c 0.553,0 1,0.447 1,1 0,0.553 -0.447,1 -1,1 z m 0,-4 c 0,-0.553 0.447,-1 1,-1 h 2 c 0.553,0 1,0.447 1,1 0,0.553 -0.447,1 -1,1 h -2 c -0.553,0 -1,-0.447 -1,-1 z m 3,-3 c 0,-0.553 0.447,-1 1,-1 h 2 c 0.553,0 1,0.447 1,1 0,0.553 -0.447,1 -1,1 h -2 c -0.553,0 -1,-0.447 -1,-1 z m 3,7 h -2 c -0.553,0 -1,-0.447 -1,-1 0,-0.553 0.447,-1 1,-1 h 2 c 0.553,0 1,0.447 1,1 0,0.553 -0.447,1 -1,1 z m 0,-4 c 0,-0.553 0.447,-1 1,-1 h 2 c 0.553,0 1,0.447 1,1 0,0.553 -0.447,1 -1,1 h -2 c -0.553,0 -1,-0.447 -1,-1 z m 3,-3 c 0,-0.553 0.447,-1 1,-1 h 2 c 0.553,0 1,0.447 1,1 0,0.553 -0.447,1 -1,1 h -2 c -0.553,0 -1,-0.447 -1,-1 z m 3,7 h -2 c -0.553,0 -1,-0.447 -1,-1 0,-0.553 0.447,-1 1,-1 h 2 c 0.553,0 1,0.447 1,1 0,0.553 -0.447,1 -1,1 z m 0,-4 c 0,-0.553 0.447,-1 1,-1 h 2 c 0.553,0 1,0.447 1,1 0,0.553 -0.447,1 -1,1 h -2 c -0.553,0 -1,-0.447 -1,-1 z m 3,-3 c 0,-0.553 0.447,-1 1,-1 h 2 c 0.553,0 1,0.447 1,1 0,0.553 -0.447,1 -1,1 h -2 c -0.553,0 -1,-0.447 -1,-1 z m 3,7 h -2 c -0.553,0 -1,-0.447 -1,-1 0,-0.553 0.447,-1 1,-1 h 2 c 0.553,0 1,0.447 1,1 0,0.553 -0.447,1 -1,1 z m 3,-3 h -2 c -0.553,0 -1,-0.447 -1,-1 0,-0.553 0.447,-1 1,-1 h 2 c 0.553,0 1,0.447 1,1 0,0.553 -0.447,1 -1,1 z M 41,41 c -2.206,0 -4,-1.794 -4,-4 0,-2.206 1.794,-4 4,-4 2.206,0 4,1.794 4,4 0,2.206 -1.794,4 -4,4 z m 4,-28 v 2 6 2 8 H 15 V 23 21 15 13 5 h 30 z"
   style="fill:#fefefe;fill-opacity:1" />
		<rect
   id="rect888"
   height="6"
   width="26"
   y="23"
   x="17"
   style="fill:#fefefe;fill-opacity:1" />
		<rect
   id="rect890"
   height="6"
   width="26"
   y="15"
   x="17"
   style="fill:#fefefe;fill-opacity:1" />
		<rect
   id="rect892"
   height="6"
   width="26"
   y="7"
   x="17"
   style="fill:#fefefe;fill-opacity:1" />
	</g>
</g>
<g
   id="g898">
</g>
<g
   id="g900">
</g>
<g
   id="g902">
</g>
<g
   id="g904">
</g>
<g
   id="g906">
</g>
<g
   id="g908">
</g>
<g
   id="g910">
</g>
<g
   id="g912">
</g>
<g
   id="g914">
</g>
<g
   id="g916">
</g>
<g
   id="g918">
</g>
<g
   id="g920">
</g>
<g
   id="g922">
</g>
<g
   id="g924">
</g>
<g
   id="g926">
</g>
<g
   transform="matrix(0.01502429,0,0,0.01606048,-1.0056357,0.77551329)"
   id="g1452"
   style="fill:#fefefe;fill-opacity:1"><g
     id="g1393"
     style="fill:#fefefe;fill-opacity:1">
	<g
   id="g1391"
   style="fill:#fefefe;fill-opacity:1">
		<path
   d="M 734.4,0 H 191.6 c -29.4,0 -53.2,23.8 -53.2,53.2 v 819.6 c 0,29.4 23.8,53.2 53.2,53.2 h 542.8 c 29.4,0 53.199,-23.8 53.199,-53.2 V 53.2 C 787.6,23.8 763.801,0 734.4,0 Z M 215.9,55.1 c 14,0 25.4,11.4 25.4,25.4 0,14 -11.4,25.4 -25.4,25.4 -14,0 -25.4,-11.4 -25.4,-25.4 0,-14 11.4,-25.4 25.4,-25.4 z m 0,820.4 c -14,0 -25.4,-11.4 -25.4,-25.4 0,-14 11.4,-25.399 25.4,-25.399 14,0 25.4,11.399 25.4,25.399 0,14 -11.4,25.4 -25.4,25.4 z M 351.1,537.9 c 0,9 -7.3,16.3 -16.3,16.3 h -3.7 c -9,0 -16.3,-7.3 -16.3,-16.3 v -62.1 h -71 v 62.1 c 0,9 -7.3,16.3 -16.3,16.3 H 224 c -9,0 -16.3,-7.3 -16.3,-16.3 V 391.1 c 0,-9 7.3,-16.3 16.3,-16.3 h 3.7 c 9,0 16.3,7.3 16.3,16.3 v 54.3 h 71 v -54.3 c 0,-9 7.3,-16.3 16.3,-16.3 h 3.7 c 9,0 16.3,7.3 16.3,16.3 v 146.8 z m 182.201,-33.6 c -4.5,13 -10.9,23.601 -19.201,31.7 -6.299,6.1 -14.799,10.9 -25.398,14.3 -8,2.5 -18.701,3.8 -32.101,3.8 h -51.899 c -9,0 -16.3,-7.3 -16.3,-16.3 V 391.1 c 0,-9 7.3,-16.3 16.3,-16.3 H 454.6 c 14.9,0 26.3,1.101 34.101,3.4 10.5,3.1 19.5,8.6 27,16.5 7.5,7.899 13.199,17.6 17.1,29.1 3.901,11.5 5.9,25.601 5.9,42.4 0.1,14.7 -1.701,27.5 -5.4,38.1 z M 637.5,554.1 h -51.9 c -9,0 -16.299,-7.3 -16.299,-16.3 V 391.1 c 0,-9 7.299,-16.3 16.299,-16.3 h 49.9 c 14.9,0 26.301,1.101 34.1,3.4 10.5,3.1 19.5,8.6 27,16.5 7.5,7.899 13.201,17.6 17.102,29.1 3.898,11.5 5.898,25.601 5.898,42.4 0,14.8 -1.799,27.5 -5.5,38.2 -4.5,13 -10.898,23.6 -19.199,31.699 C 688.6,542.2 680.1,547 669.5,550.4 c -7.9,2.5 -18.6,3.7 -32,3.7 z m 65,321.4 c -14,0 -25.4,-11.4 -25.4,-25.4 0,-14 11.4,-25.399 25.4,-25.399 14,0 25.4,11.399 25.4,25.399 0,14 -11.3,25.4 -25.4,25.4 z m 0,-769.6 c -14,0 -25.4,-11.4 -25.4,-25.4 0,-14 11.4,-25.4 25.4,-25.4 14,0 25.4,11.4 25.4,25.4 0,14 -11.3,25.4 -25.4,25.4 z"
   id="path1385"
   style="fill:#fefefe;fill-opacity:1" />
		<path
   d="m 668.4,415.3 c -4.4,-4.2 -10,-7 -16.801,-8.399 -5.1,-1.101 -15,-1.7 -29.699,-1.7 H 605.6 V 524 h 27 c 10.102,0 17.4,-0.6 21.9,-1.7 5.9,-1.5 10.701,-4 14.6,-7.5 3.9,-3.5 7,-9.3 9.5,-17.3 2.4,-8 3.701,-19 3.701,-32.8 0,-13.9 -1.201,-24.5 -3.701,-31.9 -2.399,-7.6 -5.799,-13.4 -10.2,-17.5 z"
   id="path1387"
   style="fill:#fefefe;fill-opacity:1" />
		<path
   d="m 487.4,415.3 c -4.4,-4.2 -10,-7 -16.801,-8.399 -5.1,-1.101 -15,-1.7 -29.699,-1.7 H 424.6 V 524 h 27 c 10.101,0 17.4,-0.6 21.9,-1.7 5.9,-1.5 10.701,-4 14.6,-7.5 3.9,-3.5 7,-9.3 9.5,-17.3 2.4,-8 3.701,-19 3.701,-32.8 0,-13.9 -1.201,-24.5 -3.701,-31.9 -2.299,-7.6 -5.799,-13.4 -10.2,-17.5 z"
   id="path1389"
   style="fill:#fefefe;fill-opacity:1" />
	</g>
</g><g
     id="g1395"
     style="fill:#fefefe;fill-opacity:1">
</g><g
     id="g1397"
     style="fill:#fefefe;fill-opacity:1">
</g><g
     id="g1399"
     style="fill:#fefefe;fill-opacity:1">
</g><g
     id="g1401"
     style="fill:#fefefe;fill-opacity:1">
</g><g
     id="g1403"
     style="fill:#fefefe;fill-opacity:1">
</g><g
     id="g1405"
     style="fill:#fefefe;fill-opacity:1">
</g><g
     id="g1407"
     style="fill:#fefefe;fill-opacity:1">
</g><g
     id="g1409"
     style="fill:#fefefe;fill-opacity:1">
</g><g
     id="g1411"
     style="fill:#fefefe;fill-opacity:1">
</g><g
     id="g1413"
     style="fill:#fefefe;fill-opacity:1">
</g><g
     id="g1415"
     style="fill:#fefefe;fill-opacity:1">
</g><g
     id="g1417"
     style="fill:#fefefe;fill-opacity:1">
</g><g
     id="g1419"
     style="fill:#fefefe;fill-opacity:1">
</g><g
     id="g1421"
     style="fill:#fefefe;fill-opacity:1">
</g><g
     id="g1423"
     style="fill:#fefefe;fill-opacity:1">
</g></g><g
   transform="matrix(0.03810706,0,0,0.04506666,31.759955,0.77551623)"
   id="g1549"
   style="fill:#fefefe;fill-opacity:1"><g
     id="XMLID_308_"
     style="fill:#fefefe;fill-opacity:1">
	<path
   id="XMLID_309_"
   d="m 315,120 c 8.283,0 15,-6.716 15,-15 0,-8.284 -6.717,-15 -15,-15 H 280.005 V 64.987 c 0,-8.284 -6.716,-15 -15,-15 H 240.002 V 15 c 0,-8.284 -6.717,-15 -15,-15 -8.285,0 -15,6.716 -15,15 V 49.987 H 180.007 V 15 c 0,-8.284 -6.716,-15 -15,-15 -8.284,0 -15,6.716 -15,15 V 49.987 H 120.008 V 15 c 0,-8.284 -6.717,-15 -15,-15 -8.285,0 -15,6.716 -15,15 V 49.987 H 65.004 c -8.284,0 -15,6.716 -15,15 V 90 H 15 c -8.284,0 -15,6.716 -15,15 0,8.284 6.716,15 15,15 h 35.004 v 29.996 H 15 c -8.284,0 -15,6.716 -15,15 0,8.284 6.716,15 15,15 H 50.004 V 210 H 15 c -8.284,0 -15,6.716 -15,15 0,8.284 6.716,15 15,15 h 35.004 v 25.004 c 0,8.284 6.716,15 15,15 H 90.008 V 315 c 0,8.284 6.715,15 15,15 8.283,0 15,-6.716 15,-15 v -34.996 h 29.999 V 315 c 0,8.284 6.716,15 15,15 8.284,0 15,-6.716 15,-15 v -34.996 h 29.995 V 315 c 0,8.284 6.715,15 15,15 8.283,0 15,-6.716 15,-15 v -34.996 h 25.003 c 8.284,0 15,-6.716 15,-15 V 240 H 315 c 8.283,0 15,-6.716 15,-15 0,-8.284 -6.717,-15 -15,-15 H 280.005 V 179.996 H 315 c 8.283,0 15,-6.716 15,-15 0,-8.284 -6.717,-15 -15,-15 H 280.005 V 120 Z m -94.998,85 c 0,8.284 -6.717,15 -15,15 h -79.994 c -8.285,0 -15,-6.716 -15,-15 v -80 c 0,-8.284 6.715,-15 15,-15 h 79.994 c 8.283,0 15,6.716 15,15 z"
   style="fill:#fefefe;fill-opacity:1" />
</g><g
     id="g1495"
     style="fill:#fefefe;fill-opacity:1">
</g><g
     id="g1497"
     style="fill:#fefefe;fill-opacity:1">
</g><g
     id="g1499"
     style="fill:#fefefe;fill-opacity:1">
</g><g
     id="g1501"
     style="fill:#fefefe;fill-opacity:1">
</g><g
     id="g1503"
     style="fill:#fefefe;fill-opacity:1">
</g><g
     id="g1505"
     style="fill:#fefefe;fill-opacity:1">
</g><g
     id="g1507"
     style="fill:#fefefe;fill-opacity:1">
</g><g
     id="g1509"
     style="fill:#fefefe;fill-opacity:1">
</g><g
     id="g1511"
     style="fill:#fefefe;fill-opacity:1">
</g><g
     id="g1513"
     style="fill:#fefefe;fill-opacity:1">
</g><g
     id="g1515"
     style="fill:#fefefe;fill-opacity:1">
</g><g
     id="g1517"
     style="fill:#fefefe;fill-opacity:1">
</g><g
     id="g1519"
     style="fill:#fefefe;fill-opacity:1">
</g><g
     id="g1521"
     style="fill:#fefefe;fill-opacity:1">
</g><g
     id="g1523"
     style="fill:#fefefe;fill-opacity:1">
</g></g><g
   transform="matrix(0,-0.01124991,0.01279253,0,18.24799,10.991921)"
   id="g1655"><g
     id="g1598">
	<path
   d="m -770.15541,1862.7256 -126.41186,-54.5339 c -19.3141,-8.3316 -42.36987,-4.4964 -55.91258,9.2946 L -1135.219,2003.617 c -9.0842,9.2604 -12.5623,21.7217 -9.4133,33.7868 3.1447,12.0663 12.5626,22.3832 25.5235,27.9774 l 21.111,9.1067 -229.1374,409.076 -53.9736,-23.2828 c -23.2424,-10.0168 -50.9942,-2.2492 -61.9997,17.3723 -10.9907,19.6216 -1.0542,43.6596 22.1945,53.6915 l 16.7199,7.2126 -302.6538,379.7823 c -23.2749,29.2072 -29.6834,65.3188 -18.0346,101.6718 13.8152,43.143 50.8239,80.4306 101.5161,102.3039 l 116.4915,50.2515 c 46.6921,20.1447 98.0821,24.2268 142.9147,11.6646 3.8427,-1.0768 7.657,-2.281 11.3977,-3.6044 39.9117,-14.1172 68.5768,-40.622 80.7131,-74.634 l 157.8056,-442.2629 16.7377,7.2201 c 11.625,5.0115 24.3743,5.5759 35.5956,2.4315 11.2169,-3.1429 20.9058,-9.9941 26.4041,-19.8036 10.9908,-19.622 1.0542,-43.6596 -22.1944,-53.6917 l -59.0312,-25.4645 229.14184,-409.0772 21.11099,9.1067 c 12.96094,5.5942 28.02908,5.8304 40.83232,0.6468 12.80915,-5.1811 21.92805,-15.2091 24.73323,-27.1812 l 56.3201,-240.6585 c 4.17408,-17.8386 -6.44624,-36.1976 -25.76189,-44.5331 z m -590.81999,1217.7975 c -5.3395,14.96 -18.9074,22.5046 -29.3556,26.1942 -22.1942,7.8828 -50.9402,5.9241 -76.7415,-5.2091 l -116.4915,-50.2515 c -25.7997,-11.1293 -45.0811,-29.8728 -51.5728,-50.1424 -3.0466,-9.5108 -4.5326,-23.5491 5.7039,-36.397 l 310.348,-389.4366 119.9262,51.7361 z m 480.58306,-1000.3911 -9.28813,-4.0067 c -23.24401,-10.0206 -50.99582,-2.253 -61.99973,17.3723 l -249.0401,444.6078 -42.222,-18.2135 249.04007,-444.6078 c 10.99076,-19.6217 1.05421,-43.6595 -22.19447,-53.6915 l -9.2881,-4.0066 121.88515,-124.1532 60.67493,26.1767 z"
   id="path1594"
   style="fill:#fefefe;fill-opacity:1;stroke-width:4.30713" />
	<path
   d="m -1323.8236,2636.4258 -209.1801,373.4397 c -8.7937,15.6995 -0.8445,34.9295 17.7556,42.9534 9.2984,4.008 19.4985,4.4608 28.4764,1.9452 8.9736,-2.5144 16.7249,-7.9972 21.1233,-15.8431 l 209.1802,-373.4399 c 8.7937,-15.6994 0.8444,-34.9298 -17.7556,-42.9531 -18.591,-8.0138 -40.7957,-1.8003 -49.5998,13.8978 z"
   id="path1596"
   style="fill:#fefefe;fill-opacity:1;stroke-width:4.30713" />
</g><g
     id="g1600">
</g><g
     id="g1602">
</g><g
     id="g1604">
</g><g
     id="g1606">
</g><g
     id="g1608">
</g><g
     id="g1610">
</g><g
     id="g1612">
</g><g
     id="g1614">
</g><g
     id="g1616">
</g><g
     id="g1618">
</g><g
     id="g1620">
</g><g
     id="g1622">
</g><g
     id="g1624">
</g><g
     id="g1626">
</g><g
     id="g1628">
</g></g><g
   style="font-size:14.7515px;line-height:1.25;font-family:Symbol;-inkscape-font-specification:Symbol;fill:#fefefe;fill-opacity:1;stroke-width:0.368787"
   id="text1659"
   transform="matrix(1.3518491,0,0,1.4712774,-25.670499,-10.308902)"
   aria-label="+"><path
     sodipodi:nodetypes="ccccccccccc"
     id="path1661"
     style="fill:#fefefe;fill-opacity:1;stroke-width:0.368787"
     d="m 35.622667,10.527961 h 3.421369 v 0.69868 h -3.421369 l -0.1139,8.145252 -0.229336,0.378231 -0.277221,-0.378231 -0.08543,-8.145252 h -3.435774 v -0.69868 h 3.435774" /></g></svg>
