<?xml version="1.0" encoding="UTF-8" standalone="no"?>
<svg
   xmlns:dc="http://purl.org/dc/elements/1.1/"
   xmlns:cc="http://creativecommons.org/ns#"
   xmlns:rdf="http://www.w3.org/1999/02/22-rdf-syntax-ns#"
   xmlns:svg="http://www.w3.org/2000/svg"
   xmlns="http://www.w3.org/2000/svg"
   xmlns:sodipodi="http://sodipodi.sourceforge.net/DTD/sodipodi-0.dtd"
   xmlns:inkscape="http://www.inkscape.org/namespaces/inkscape"
   inkscape:version="1.0 (4035a4fb49, 2020-05-01)"
   sodipodi:docname="net.svg"
   version="1.1"
   viewBox="0 0 64 64"
   data-name="Layer 1"
   id="Layer_1">
  <metadata
     id="metadata927">
    <rdf:RDF>
      <cc:Work
         rdf:about="">
        <dc:format>image/svg+xml</dc:format>
        <dc:type
           rdf:resource="http://purl.org/dc/dcmitype/StillImage" />
      </cc:Work>
    </rdf:RDF>
  </metadata>
  <sodipodi:namedview
     inkscape:current-layer="Layer_1"
     inkscape:window-maximized="1"
     inkscape:window-y="-9"
     inkscape:window-x="-9"
     inkscape:cy="32"
     inkscape:cx="32"
     inkscape:zoom="12.96875"
     showgrid="false"
     id="namedview925"
     inkscape:window-height="1001"
     inkscape:window-width="1920"
     inkscape:pageshadow="2"
     inkscape:pageopacity="0"
     guidetolerance="10"
     gridtolerance="10"
     objecttolerance="10"
     borderopacity="1"
     bordercolor="#666666"
     pagecolor="#ffffff" />
  <defs
     id="defs900">
    <style
       id="style898">.cls-1{fill:#5c2d91;}.cls-2,.cls-3{fill:#fff;}.cls-2{opacity:0.1;}.cls-4{fill:#f2f2f2;}</style>
  </defs>
  <title
     id="title902">logo_NETcore</title>
  <circle
     inkscape:export-ydpi="180"
     inkscape:export-xdpi="180"
     inkscape:export-filename="D:\Study\navykp.github.io\static\images\net.png"
     id="circle904"
     r="32"
     cy="32"
     cx="32"
     class="cls-1" />
  <path
     id="path906"
     d="M9.82,9A32,32,0,1,0,55,54.18Z"
     class="cls-2" />
  <path
     id="path908"
     d="M7.4,37.25a1.35,1.35,0,0,1-1-.42,1.38,1.38,0,0,1-.41-1,1.4,1.4,0,0,1,.41-1,1.34,1.34,0,0,1,1-.43,1.37,1.37,0,0,1,1,.43,1.39,1.39,0,0,1,.42,1,1.37,1.37,0,0,1-.42,1A1.38,1.38,0,0,1,7.4,37.25Z"
     class="cls-3" />
  <path
     id="path910"
     d="M27.27,37H24.65L15.28,22.46a6,6,0,0,1-.58-1.14h-.08a18.72,18.72,0,0,1,.1,2.5V37H12.59V18.77h2.77l9.12,14.28q.57.89.74,1.22h.05a19.28,19.28,0,0,1-.13-2.68V18.77h2.13Z"
     class="cls-3" />
  <path
     id="path912"
     d="M41.69,37H32V18.77h9.24V20.7H34.18v6.06h6.58v1.92H34.18V35h7.52Z"
     class="cls-3" />
  <path
     id="path914"
     d="M56,20.7H50.7V37H48.57V20.7H43.33V18.77H56Z"
     class="cls-3" />
  <path
     id="path916"
     d="M26.12,49.4a4.93,4.93,0,0,1-2.32.49,3.74,3.74,0,0,1-2.87-1.15,4.26,4.26,0,0,1-1.08-3,4.46,4.46,0,0,1,1.21-3.26,4.12,4.12,0,0,1,3.08-1.24,4.93,4.93,0,0,1,2,.35v1a4,4,0,0,0-2-.5,3.06,3.06,0,0,0-2.35,1,3.64,3.64,0,0,0-.9,2.58,3.47,3.47,0,0,0,.84,2.45,2.86,2.86,0,0,0,2.21.91,4.14,4.14,0,0,0,2.19-.56Z"
     class="cls-4" />
  <path
     id="path918"
     d="M30.21,49.89A2.78,2.78,0,0,1,28.08,49a3.11,3.11,0,0,1-.79-2.23,3.24,3.24,0,0,1,.83-2.36,3,3,0,0,1,2.23-.85,2.69,2.69,0,0,1,2.09.83,3.28,3.28,0,0,1,.75,2.29,3.22,3.22,0,0,1-.81,2.3A2.84,2.84,0,0,1,30.21,49.89Zm.07-5.47a1.83,1.83,0,0,0-1.46.63,2.59,2.59,0,0,0-.54,1.74,2.45,2.45,0,0,0,.54,1.68,1.85,1.85,0,0,0,1.46.62,1.76,1.76,0,0,0,1.43-.6,2.62,2.62,0,0,0,.5-1.72,2.66,2.66,0,0,0-.5-1.73A1.75,1.75,0,0,0,30.28,44.42Z"
     class="cls-4" />
  <path
     id="path920"
     d="M37.86,44.72a1.18,1.18,0,0,0-.73-.19,1.23,1.23,0,0,0-1,.58,2.68,2.68,0,0,0-.41,1.58v3.06h-1v-6h1V45h0a2.1,2.1,0,0,1,.63-1,1.43,1.43,0,0,1,.94-.35,1.57,1.57,0,0,1,.57.08Z"
     class="cls-4" />
  <path
     id="path922"
     d="M43.72,47H39.49A2.24,2.24,0,0,0,40,48.54a1.86,1.86,0,0,0,1.42.54,3,3,0,0,0,1.86-.67v.9a3.48,3.48,0,0,1-2.09.57,2.54,2.54,0,0,1-2-.82,3.35,3.35,0,0,1-.73-2.3,3.28,3.28,0,0,1,.79-2.28,2.55,2.55,0,0,1,2-.88,2.26,2.26,0,0,1,1.82.76,3.18,3.18,0,0,1,.64,2.12Zm-1-.81a2,2,0,0,0-.4-1.29,1.37,1.37,0,0,0-1.1-.46,1.55,1.55,0,0,0-1.15.49,2.21,2.21,0,0,0-.59,1.27Z"
     class="cls-4" />
</svg>
