<?xml version="1.0" encoding="UTF-8" standalone="no"?>
<svg
   xmlns:dc="http://purl.org/dc/elements/1.1/"
   xmlns:cc="http://creativecommons.org/ns#"
   xmlns:rdf="http://www.w3.org/1999/02/22-rdf-syntax-ns#"
   xmlns:svg="http://www.w3.org/2000/svg"
   xmlns="http://www.w3.org/2000/svg"
   xmlns:sodipodi="http://sodipodi.sourceforge.net/DTD/sodipodi-0.dtd"
   xmlns:inkscape="http://www.inkscape.org/namespaces/inkscape"
   inkscape:version="1.0 (4035a4fb49, 2020-05-01)"
   sodipodi:docname="skills-svgrepo-com.svg"
   xml:space="preserve"
   style="enable-background:new 0 0 232.688 232.688;"
   viewBox="0 0 232.688 232.688"
   y="0px"
   x="0px"
   id="Layer_1"
   version="1.1"><metadata
   id="metadata50"><rdf:RDF><cc:Work
       rdf:about=""><dc:format>image/svg+xml</dc:format><dc:type
         rdf:resource="http://purl.org/dc/dcmitype/StillImage" /></cc:Work></rdf:RDF></metadata><defs
   id="defs48" /><sodipodi:namedview
   inkscape:current-layer="Layer_1"
   inkscape:window-maximized="1"
   inkscape:window-y="-9"
   inkscape:window-x="-9"
   inkscape:cy="116.344"
   inkscape:cx="116.344"
   inkscape:zoom="3.5670081"
   showgrid="false"
   id="namedview46"
   inkscape:window-height="1001"
   inkscape:window-width="1920"
   inkscape:pageshadow="2"
   inkscape:pageopacity="0"
   guidetolerance="10"
   gridtolerance="10"
   objecttolerance="10"
   borderopacity="1"
   bordercolor="#666666"
   pagecolor="#ffffff" />
<g
   style="fill:#ffffff;fill-opacity:1"
   id="XMLID_169_">
	<g
   style="fill:#ffffff;fill-opacity:1"
   id="XMLID_197_">
		<path
   style="fill:#ffffff;fill-opacity:1"
   d="M97.688,61.344h120c8.284,0,15-6.716,15-15s-6.716-15-15-15h-120c-8.284,0-15,6.716-15,15    S89.403,61.344,97.688,61.344z"
   id="XMLID_221_" />
	</g>
	<g
   style="fill:#ffffff;fill-opacity:1"
   id="XMLID_222_">
		<path
   style="fill:#ffffff;fill-opacity:1"
   d="M217.688,101.344h-120c-8.284,0-15,6.716-15,15s6.716,15,15,15h120c8.284,0,15-6.716,15-15    S225.972,101.344,217.688,101.344z"
   id="XMLID_223_" />
	</g>
	<g
   style="fill:#ffffff;fill-opacity:1"
   id="XMLID_224_">
		<path
   style="fill:#ffffff;fill-opacity:1"
   d="M217.688,171.344h-120c-8.284,0-15,6.716-15,15c0,8.284,6.716,15,15,15h120c8.284,0,15-6.716,15-15    C232.688,178.06,225.972,171.344,217.688,171.344z"
   id="XMLID_225_" />
	</g>
	<g
   style="fill:#ffffff;fill-opacity:1"
   id="XMLID_226_">
		<path
   style="fill:#ffffff;fill-opacity:1"
   d="M48.785,104.408l-9.989-1.452l-4.467-9.052c-1.264-2.56-3.87-4.181-6.726-4.181    c-2.854,0-5.462,1.621-6.726,4.181l-4.468,9.052l-9.988,1.452c-2.825,0.41-5.173,2.389-6.055,5.104    c-0.882,2.715-0.146,5.695,1.897,7.688l7.228,7.045l-1.707,9.949c-0.483,2.814,0.674,5.658,2.983,7.336    c1.307,0.95,2.853,1.433,4.409,1.433c1.193,0,2.392-0.285,3.489-0.861l8.936-4.698l8.936,4.698    c1.098,0.577,2.296,0.861,3.489,0.861c0.007,0,0.015,0,0.021,0c4.142-0.001,7.499-3.358,7.499-7.5    c0-0.629-0.077-1.241-0.223-1.825l-1.612-9.393l7.228-7.045c2.045-1.993,2.78-4.973,1.898-7.688    C53.958,106.797,51.61,104.818,48.785,104.408z"
   id="XMLID_227_" />
	</g>
	<g
   style="fill:#ffffff;fill-opacity:1"
   id="XMLID_228_">
		<path
   style="fill:#ffffff;fill-opacity:1"
   d="M48.785,34.408l-9.989-1.452l-4.467-9.052c-1.264-2.56-3.87-4.181-6.726-4.181    c-2.854,0-5.462,1.621-6.726,4.181l-4.468,9.052l-9.988,1.452c-2.825,0.41-5.173,2.389-6.055,5.104    c-0.882,2.715-0.146,5.695,1.897,7.688l7.228,7.045l-1.707,9.949c-0.483,2.814,0.674,5.658,2.983,7.336    c1.307,0.95,2.853,1.433,4.409,1.433c1.193,0,2.392-0.285,3.489-0.861l8.936-4.698l8.936,4.698    c1.098,0.577,2.296,0.861,3.489,0.861c0.007,0,0.015,0,0.021,0c4.142,0,7.499-3.358,7.499-7.5c0-0.629-0.077-1.241-0.223-1.825    l-1.612-9.393l7.228-7.045c2.045-1.993,2.78-4.973,1.898-7.688C53.958,36.797,51.61,34.818,48.785,34.408z"
   id="XMLID_229_" />
	</g>
	<g
   style="fill:#ffffff;fill-opacity:1"
   id="XMLID_230_">
		<path
   style="fill:#ffffff;fill-opacity:1"
   d="M48.785,174.408l-9.989-1.452l-4.467-9.052c-1.264-2.56-3.87-4.181-6.726-4.181    c-2.854,0-5.462,1.621-6.726,4.181l-4.468,9.052l-9.988,1.452c-2.825,0.41-5.173,2.389-6.055,5.104    c-0.882,2.715-0.146,5.695,1.897,7.688l7.228,7.045l-1.707,9.949c-0.483,2.814,0.674,5.658,2.983,7.336    c1.307,0.95,2.853,1.433,4.409,1.433c1.193,0,2.392-0.285,3.489-0.861l8.936-4.698l8.936,4.698    c1.098,0.577,2.296,0.861,3.489,0.861c0.007,0,0.015,0,0.021,0c4.142-0.001,7.499-3.358,7.499-7.5    c0-0.629-0.077-1.241-0.223-1.825l-1.612-9.393l7.228-7.045c2.045-1.993,2.78-4.973,1.898-7.688    C53.958,176.797,51.61,174.818,48.785,174.408z"
   id="XMLID_231_" />
	</g>
</g>
<g
   id="g15">
</g>
<g
   id="g17">
</g>
<g
   id="g19">
</g>
<g
   id="g21">
</g>
<g
   id="g23">
</g>
<g
   id="g25">
</g>
<g
   id="g27">
</g>
<g
   id="g29">
</g>
<g
   id="g31">
</g>
<g
   id="g33">
</g>
<g
   id="g35">
</g>
<g
   id="g37">
</g>
<g
   id="g39">
</g>
<g
   id="g41">
</g>
<g
   id="g43">
</g>
</svg>
